<?xml version="1.0" encoding="UTF-8"?>
<svg version="1.1" xmlns="http://www.w3.org/2000/svg" width="512" height="512">
<path d="M0 0 C168.96 0 337.92 0 512 0 C512 168.96 512 337.92 512 512 C343.04 512 174.08 512 0 512 C0 343.04 0 174.08 0 0 Z " fill="#0088FF" transform="translate(0,0)"/>
<path d="M0 0 C6.8063518 6.23450667 11.60171276 14.05886091 14.75 22.6875 C15.0490625 23.47125 15.348125 24.255 15.65625 25.0625 C20.19497465 38.84677485 18.87201421 53.66853307 12.75 66.6875 C8.03351042 74.83309987 0.74546851 80.78447616 -8.25 83.6875 C-18.94438461 84.90569934 -27.21476109 83.9361699 -36.25 77.6875 C-38.51176897 75.79273505 -40.3222555 73.93653526 -42.25 71.6875 C-40.80614692 68.3703401 -38.97204807 66.24627893 -36.4375 63.6875 C-31.78844626 58.56594715 -29.46001154 53.18332339 -27.25 46.6875 C-27.00378906 45.99914062 -26.75757813 45.31078125 -26.50390625 44.6015625 C-23.59296323 35.08579016 -24.45097696 25.29798147 -28.6328125 16.35546875 C-32.4642271 10.03456012 -38.12881058 5.74929736 -45.25 3.6875 C-48.69714985 3.25021213 -52.09090938 3.21006107 -55.5625 3.25 C-56.49876221 3.25974854 -57.43502441 3.26949707 -58.3996582 3.27954102 C-69.20461218 3.55789762 -76.01205694 6.41089634 -83.9140625 13.9140625 C-91.79504155 23.27107776 -94.42863777 33.4557666 -94.4375 45.4375 C-94.44974609 46.2934375 -94.46199219 47.149375 -94.47460938 48.03125 C-94.49498321 56.99573812 -92.80908982 64.48404892 -88.6875 72.4375 C-88.33743896 73.12215332 -87.98737793 73.80680664 -87.62670898 74.51220703 C-81.91840178 85.40333886 -74.63789777 94.7248759 -66.25 103.6875 C-65.11898457 104.97390269 -63.99368396 106.26535931 -62.875 107.5625 C-56.84066542 114.47888348 -50.7085264 121.3504444 -44.125 127.75 C-39.42027886 132.39734649 -35.35086707 137.50853476 -31.25 142.6875 C-30.04150391 144.17056641 -30.04150391 144.17056641 -28.80859375 145.68359375 C-11.0103964 167.8081544 0.08707319 191.47483994 0.125 220.0625 C0.12685303 221.33424072 0.12870605 222.60598145 0.13061523 223.91625977 C-0.18022345 249.88233082 -11.24706121 271.15178814 -29.48388672 289.2878418 C-41.90619788 301.22289021 -57.19831663 308.71340607 -73.25 314.5 C-74.00740479 314.7779541 -74.76480957 315.0559082 -75.54516602 315.34228516 C-88.86433377 319.92855627 -102.14323052 321.21977569 -116.125 321.0625 C-116.86635193 321.05784729 -117.60770386 321.05319458 -118.371521 321.04840088 C-145.95965061 320.84577075 -171.26783433 314.59678352 -191.40234375 294.703125 C-195.26096639 290.71659921 -198.43682485 286.46912278 -201.25 281.6875 C-201.93642578 280.54087891 -201.93642578 280.54087891 -202.63671875 279.37109375 C-212.12918244 262.06801428 -212.95667759 240.19289782 -208.41796875 221.20703125 C-202.36142592 202.95637877 -191.43927549 188.63197357 -174.125 179.8125 C-162.39444945 173.98786174 -149.24804022 172.62025794 -136.44140625 175.5625 C-126.16565954 179.24191932 -118.65466946 184.63320766 -113.3359375 194.2421875 C-111.89520008 197.48643795 -111.40363731 200.15384188 -111.25 203.6875 C-112.21486328 203.72617187 -112.21486328 203.72617187 -113.19921875 203.765625 C-125.85411353 204.55994079 -139.11195708 208.38461356 -148.77734375 217 C-157.51678282 227.01442355 -160.94660975 239.30238512 -160.6015625 252.3828125 C-159.32002156 264.42929734 -154.69171758 274.45140692 -145.359375 282.15234375 C-134.78440988 289.84856836 -122.84730965 290.99730653 -110.1015625 289.2578125 C-97.35224117 286.48919312 -84.2578712 280.03101551 -76.51171875 269.2734375 C-74.96461224 266.79346031 -73.57964968 264.28987247 -72.25 261.6875 C-71.85941406 260.945 -71.46882812 260.2025 -71.06640625 259.4375 C-64.14586275 245.24151333 -64.71840805 228.64355385 -69.47509766 213.87060547 C-74.08299124 200.88894687 -80.79128309 189.48820693 -89.25 178.6875 C-89.91773438 177.82125 -90.58546875 176.955 -91.2734375 176.0625 C-98.18086946 167.26609685 -105.54817245 158.82420096 -112.84106445 150.34692383 C-132.44999166 127.53590219 -151.36651578 104.62183137 -158.25 74.6875 C-158.44335938 73.88957031 -158.63671875 73.09164062 -158.8359375 72.26953125 C-161.88050573 53.2840633 -157.12140175 34.35150845 -146.1484375 18.6875 C-131.07772531 -0.48372399 -109.78375757 -12.11470005 -86.25 -17.3125 C-84.86361328 -17.65087891 -84.86361328 -17.65087891 -83.44921875 -17.99609375 C-55.05939427 -23.95343753 -22.63044205 -18.39803113 0 0 Z " fill="#FDFEFF" transform="translate(459.25,105.3125)"/>
<path d="M0 0 C23.9172992 2.36726654 46.84075642 3.29870487 70.625 -1 C72.62476296 -1.33475244 74.62465341 -1.6687529 76.625 -2 C72.72671295 14.96517103 68.31488029 33.94001793 52.625 44 C30.57756605 55.52622259 2.96334856 49.76063155 -20.171875 43.76953125 C-23.31212241 42.88320141 -23.31212241 42.88320141 -26.375 43 C-26.60050537 44.15109253 -26.60050537 44.15109253 -26.83056641 45.32543945 C-29.53784906 59.10434175 -32.29929683 72.86016103 -35.375 86.5625 C-38.52581105 100.67550784 -41.44523189 114.83945412 -44.375 129 C-23.255 129 -2.135 129 19.625 129 C17.61347764 140.063373 15.11707432 151.034873 12.625 162 C-8.825 162 -30.275 162 -52.375 162 C-52.705 164.64 -53.035 167.28 -53.375 170 C-53.7485386 172.0518182 -54.1475167 174.09920041 -54.57421875 176.140625 C-54.81068115 177.27870605 -55.04714355 178.41678711 -55.29077148 179.58935547 C-55.6727771 181.40137451 -55.6727771 181.40137451 -56.0625 183.25 C-56.3294165 184.52633301 -56.59633301 185.80266602 -56.87133789 187.11767578 C-57.70081712 191.07952932 -58.53762853 195.03980702 -59.375 199 C-59.62443359 200.18368164 -59.87386719 201.36736328 -60.13085938 202.58691406 C-62.87780149 215.60359016 -65.72552357 228.59309381 -68.6875 241.5625 C-71.98404429 256.00225343 -75.02420705 270.49186336 -78.00317383 285.00024414 C-80.9098387 299.06369659 -84.14285322 312.9940306 -87.375 327 C-108.165 327 -128.955 327 -150.375 327 C-149.75248774 321.39738962 -149.11881161 316.23357538 -147.9921875 310.7734375 C-147.85732437 310.11599548 -147.72246124 309.45855347 -147.58351135 308.78118896 C-147.14355441 306.64482245 -146.69712472 304.50987694 -146.25 302.375 C-145.93625869 300.86312277 -145.62253834 299.35124118 -145.30883789 297.83935547 C-142.9697869 286.61840375 -140.47978301 275.43564342 -137.93115234 264.26049805 C-134.34243035 248.52092972 -130.94133478 232.74210405 -127.7265625 216.921875 C-127.15135377 214.09368639 -126.57587032 211.26555397 -126 208.4375 C-125.85612854 207.7304895 -125.71225708 207.023479 -125.56402588 206.29504395 C-123.13460204 194.38697871 -120.47691391 182.54053371 -117.73153687 170.70175171 C-115.38917778 160.59148849 -113.21488084 150.46902689 -111.2355957 140.28027344 C-109.62165298 132.04748785 -107.80406576 123.86592926 -105.9375 115.6875 C-102.6224666 101.15144588 -99.4549476 86.58777874 -96.375 72 C-96.20897278 71.21369202 -96.04294556 70.42738403 -95.87188721 69.61724854 C-93.36607462 57.746272 -90.8681961 45.87363217 -88.375 34 C-104.0822082 36.01701619 -117.65425362 39.08038505 -127.81640625 52.13671875 C-133.19783822 59.80413658 -137.03056965 67.90891517 -139.375 77 C-139.56964844 77.74668945 -139.76429688 78.49337891 -139.96484375 79.26269531 C-143.21818973 92.504664 -143.76747291 105.68479539 -143.8125 119.25 C-143.8217601 120.44775558 -143.8217601 120.44775558 -143.83120728 121.66970825 C-143.87714177 130.90111699 -143.23619118 139.1511955 -140.375 148 C-140.00337884 149.99324078 -139.64653025 151.99067613 -139.375 154 C-152.70790334 154.47998452 -163.45695169 153.34909577 -174.375 145 C-182.63830087 137.17909382 -185.26519628 127.72829351 -185.71875 116.6875 C-186.35651295 87.45909067 -179.1810521 61.9915475 -159.375 40 C-158.68921875 39.23171875 -158.0034375 38.4634375 -157.296875 37.671875 C-117.56535806 -4.4141022 -53.36936173 -5.29061831 0 0 Z " fill="#FDFEFF" transform="translate(221.375,91)"/>
<path d="M0 0 C0.33 0 0.66 0 1 0 C1 13.53 1 27.06 1 41 C-12.53 41 -26.06 41 -40 41 C-36.77794772 39.38897386 -33.66489916 38.09649079 -30.3125 36.8125 C-16.32964928 30.99481758 -7.86955879 20.70813891 -2 7 C-1.17794005 4.65968578 -0.55034658 2.42152494 0 0 Z " fill="#000000" transform="translate(511,471)"/>
<path d="M0 0 C13.53 0 27.06 0 41 0 C41 13.86 41 27.72 41 42 C40.67 42 40.34 42 40 42 C39.79246094 41.18917969 39.58492188 40.37835938 39.37109375 39.54296875 C35.78846856 26.66650414 29.45118162 14.94941886 17.625 8.0234375 C11.89895862 5.00788973 6.25230842 2.64073317 0 1 C0 0.67 0 0.34 0 0 Z " fill="#000000" transform="translate(471,0)"/>
<path d="M0 0 C1.61857992 3.23715984 2.94284144 6.38624531 4.25 9.75 C6.52146149 15.21611931 9.11619238 19.55584203 13 24 C13.71542969 24.88945312 13.71542969 24.88945312 14.4453125 25.796875 C21.17431411 33.43885673 31.33603298 37.47306985 41 40 C41 40.33 41 40.66 41 41 C27.47 41 13.94 41 0 41 C0 27.47 0 13.94 0 0 Z " fill="#000000" transform="translate(0,471)"/>
<path d="M0 0 C13.53 0 27.06 0 41 0 C37.76284016 1.61857992 34.61375469 2.94284144 31.25 4.25 C25.78086899 6.52271301 21.45090275 9.12121765 17 13 C16.41863281 13.45375 15.83726563 13.9075 15.23828125 14.375 C9.13735132 19.63962268 6.17384544 27.01263798 2.8503418 34.18823242 C1.93358936 36.1414968 0.96495355 38.0700929 0 40 C0 26.8 0 13.6 0 0 Z " fill="#000000" transform="translate(0,0)"/>
</svg>
